<svg width="22" height="23" viewBox="0 0 22 23" fill="none" xmlns="http://www.w3.org/2000/svg">
<path fill-rule="evenodd" clip-rule="evenodd" d="M0 4.6C0 2.05949 1.96995 0 4.4 0H17.6C20.03 0 22 2.05949 22 4.6V18.4C22 20.9405 20.03 23 17.6 23H4.4C1.96995 23 0 20.9405 0 18.4V4.6ZM4.4 2.3C3.18497 2.3 2.2 3.32974 2.2 4.6V18.4C2.2 19.6703 3.18497 20.7 4.4 20.7H11V12.65H9.9C9.29247 12.65 8.8 12.1351 8.8 11.5C8.8 10.8649 9.29247 10.35 9.9 10.35H11V8.625C11 6.40205 12.7237 4.6 14.85 4.6H15.51C16.1175 4.6 16.61 5.11488 16.61 5.75C16.61 6.38512 16.1175 6.9 15.51 6.9H14.85C13.9388 6.9 13.2 7.67231 13.2 8.625V10.35H15.51C16.1175 10.35 16.61 10.8649 16.61 11.5C16.61 12.1351 16.1175 12.65 15.51 12.65H13.2V20.7H17.6C18.8151 20.7 19.8 19.6703 19.8 18.4V4.6C19.8 3.32974 18.8151 2.3 17.6 2.3H4.4Z" fill="#FFAA81" fill-opacity="0.933333"/>
</svg>
