<svg width="20" height="20" viewBox="0 0 20 20" fill="none" xmlns="http://www.w3.org/2000/svg">
<path d="M9.99999 4.86081C8.98446 4.86081 7.99173 5.16168 7.14737 5.72535C6.30298 6.28901 5.64486 7.09019 5.25623 8.02752C4.8676 8.9649 4.76593 9.99637 4.96405 10.9914C5.16216 11.9865 5.65119 12.9006 6.36928 13.618C7.08737 14.3353 8.00225 14.8239 8.99824 15.0218C9.99436 15.2198 11.0267 15.1182 11.9649 14.7299C12.9032 14.3417 13.7051 13.6842 14.2693 12.8407C14.8336 11.997 15.1346 11.0052 15.1346 9.99061C15.1363 9.31648 15.0046 8.64873 14.7471 8.02564C14.4897 7.40246 14.1116 6.8363 13.6344 6.35963C13.1573 5.88294 12.5906 5.50515 11.9669 5.24794C11.3431 4.99073 10.6748 4.85917 9.99999 4.86081ZM9.99999 13.3312C9.33863 13.3312 8.69217 13.1353 8.14226 12.7682C7.59248 12.4012 7.16385 11.8795 6.91077 11.2691C6.65769 10.6586 6.59148 9.98698 6.72049 9.33887C6.84951 8.69089 7.16797 8.09558 7.63556 7.62839C8.10319 7.16124 8.69905 6.84308 9.34765 6.71419C9.99636 6.58529 10.6686 6.65144 11.2796 6.90429C11.8907 7.15713 12.4129 7.58535 12.7802 8.13462C13.1476 8.68401 13.3438 9.32987 13.3438 9.99061C13.3438 10.8766 12.9915 11.7264 12.3644 12.3528C11.7374 12.9793 10.8868 13.3312 9.99999 13.3312ZM16.5498 4.64811C16.5498 4.89558 16.4764 5.13748 16.3388 5.34322C16.2011 5.54898 16.0055 5.70936 15.7767 5.80404C15.5479 5.89875 15.2961 5.92352 15.0531 5.87525C14.8101 5.82697 14.5871 5.70781 14.4119 5.53283C14.2368 5.35785 14.1175 5.13492 14.0691 4.89221C14.0208 4.6495 14.0456 4.39794 14.1404 4.16931C14.2352 3.9407 14.3957 3.74529 14.6016 3.60781C14.8076 3.47032 15.0497 3.39694 15.2974 3.39694C15.6296 3.39694 15.9481 3.52876 16.183 3.76341C16.4179 3.99804 16.5498 4.31629 16.5498 4.64811ZM19.9436 5.89928C19.9801 4.34386 19.3994 2.83716 18.3281 1.70785C17.2038 0.623948 15.6949 0.0299781 14.1327 0.0563028C12.5047 -0.0187676 7.4953 -0.0187676 5.86726 0.0563028C4.31085 0.0226337 2.80373 0.602453 1.67189 1.67032C0.600677 2.79963 0.0199374 4.30633 0.0563557 5.86175C-0.0187852 7.48826 -0.0187852 12.493 0.0563557 14.1195C0.0199374 15.6749 0.600677 17.1816 1.67189 18.3109C2.80373 19.3788 4.31085 19.9586 5.86726 19.9249C7.52034 20.025 12.4796 20.025 14.1327 19.9249C15.6897 19.9613 17.1977 19.3812 18.3281 18.3109C19.3994 17.1816 19.9801 15.6749 19.9436 14.1195C20.0188 12.493 20.0188 7.48826 19.9436 5.86175V5.89928ZM17.8147 15.9087C17.6446 16.3391 17.388 16.7298 17.0605 17.057C16.733 17.3842 16.3419 17.6405 15.9111 17.8104C13.9669 18.2032 11.9795 18.3378 9.99999 18.2108C8.02479 18.3379 6.04134 18.2033 4.10144 17.8104C3.67072 17.6405 3.2795 17.3842 2.95206 17.057C2.62461 16.7298 2.36792 16.3391 2.19787 15.9087C1.67189 14.5824 1.7846 11.4545 1.7846 10.0031C1.7846 8.55176 1.67189 5.41133 2.19787 4.09759C2.36312 3.66302 2.61799 3.26803 2.94593 2.93823C3.27387 2.60845 3.66755 2.35123 4.10144 2.1833C6.04134 1.7904 8.02479 1.65578 9.99999 1.78292C11.9795 1.65599 13.9669 1.79062 15.9111 2.1833C16.3419 2.35318 16.733 2.60964 17.0605 2.93678C17.388 3.26391 17.6446 3.65477 17.8147 4.08508C18.3406 5.41133 18.2154 8.53925 18.2154 9.99061C18.2154 11.442 18.3406 14.5824 17.8147 15.8961V15.9087Z" fill="#FFAA81"/>
</svg>
