<svg width="33" height="31" viewBox="0 0 33 31" fill="none" xmlns="http://www.w3.org/2000/svg">
<path d="M7 1.25H26C29.1756 1.25 31.75 3.82436 31.75 7V24C31.75 27.1756 29.1756 29.75 26 29.75H7C3.82436 29.75 1.25 27.1756 1.25 24V7C1.25 3.82436 3.82436 1.25 7 1.25Z" stroke="#FFAA81" stroke-width="2.5"/>
<path d="M9.5307 22.6857H11.6553C11.9484 22.6857 12.186 22.4361 12.186 22.1281V12.3706C12.186 12.0626 11.9484 11.813 11.6553 11.813H9.5307C9.23756 11.813 9 12.0626 9 12.3706V22.1281C9 22.436 9.23756 22.6857 9.5307 22.6857Z" fill="#FFAA81"/>
<path d="M9.5307 10.0976H11.6553C11.9484 10.0976 12.186 9.84792 12.186 9.53994V7.55761C12.186 7.24964 11.9484 7 11.6553 7H9.5307C9.23756 7 9 7.24964 9 7.55761V9.53994C9 9.84792 9.23756 10.0976 9.5307 10.0976Z" fill="#FFAA81"/>
<path d="M24.5433 12.9448C24.2447 12.5319 23.8045 12.1923 23.2224 11.9262C22.6403 11.6602 21.9978 11.5271 21.2948 11.5271C19.8678 11.5271 18.6585 12.0993 17.6672 13.244C17.4699 13.4718 17.3265 13.422 17.3265 13.114V12.3707C17.3265 12.0627 17.0889 11.813 16.7958 11.813H14.8979C14.6047 11.813 14.3672 12.0627 14.3672 12.3707V22.1282C14.3672 22.4361 14.6048 22.6858 14.8979 22.6858H17.0225C17.3156 22.6858 17.5532 22.4361 17.5532 22.1282V18.7348C17.5532 17.3211 17.6344 16.3521 17.7969 15.8279C17.9594 15.3038 18.2599 14.8829 18.6983 14.5652C19.1368 14.2475 19.6318 14.0885 20.1837 14.0885C20.6145 14.0885 20.9831 14.1997 21.2892 14.4222C21.5954 14.6446 21.8165 14.9562 21.9526 15.3574C22.0887 15.7585 22.1567 16.642 22.1567 18.0081V22.1281C22.1567 22.4361 22.3943 22.6858 22.6874 22.6858H24.812C25.1051 22.6858 25.3426 22.4361 25.3426 22.1281V16.6023C25.3426 15.6255 25.284 14.8749 25.167 14.3507C25.0499 13.8266 24.842 13.3579 24.5433 12.9448Z" fill="#FFAA81"/>
</svg>
