<svg width="10" height="17" viewBox="0 0 10 17" fill="none" xmlns="http://www.w3.org/2000/svg">
<path d="M0.42187 0.418643C0.554455 0.285989 0.712195 0.180699 0.885992 0.108847C1.05979 0.0369938 1.2462 0 1.43448 0C1.62276 0 1.80917 0.0369938 1.98297 0.108847C2.15676 0.180699 2.3145 0.285989 2.44709 0.418643L9.57813 7.49514C9.71181 7.62671 9.81791 7.78324 9.89031 7.95571C9.96272 8.12818 10 8.31316 10 8.5C10 8.68684 9.96272 8.87182 9.89031 9.04429C9.81791 9.21676 9.71181 9.37329 9.57813 9.50486L2.44709 16.5814C2.3145 16.714 2.15676 16.8193 1.98297 16.8912C1.80917 16.963 1.62276 17 1.43448 17C1.2462 17 1.05979 16.963 0.885992 16.8912C0.712195 16.8193 0.554455 16.714 0.42187 16.5814C0.288194 16.4498 0.182093 16.2933 0.109686 16.1208C0.0372791 15.9483 0 15.7633 0 15.5765C0 15.3897 0.0372791 15.2047 0.109686 15.0322C0.182093 14.8597 0.288194 14.7032 0.42187 14.5716L6.55457 8.5L0.42187 2.42837C0.288194 2.2968 0.182093 2.14026 0.109686 1.9678C0.0372791 1.79533 0 1.61034 0 1.42351C0 1.23667 0.0372791 1.05168 0.109686 0.879214C0.182093 0.706747 0.288194 0.550213 0.42187 0.418643Z" fill="#914D2E"/>
</svg>
