<svg width="20" height="34" viewBox="0 0 20 34" fill="none" xmlns="http://www.w3.org/2000/svg">
<path d="M0.84374 0.837286C1.10891 0.571979 1.42439 0.361399 1.77198 0.217693C2.11958 0.0739875 2.4924 0 2.86896 0C3.24551 0 3.61834 0.0739875 3.96593 0.217693C4.31352 0.361399 4.629 0.571979 4.89417 0.837286L19.1563 14.9903C19.4236 15.2534 19.6358 15.5665 19.7806 15.9114C19.9254 16.2564 20 16.6263 20 17C20 17.3737 19.9254 17.7436 19.7806 18.0886C19.6358 18.4335 19.4236 18.7466 19.1563 19.0097L4.89417 33.1627C4.629 33.428 4.31352 33.6386 3.96593 33.7823C3.61834 33.926 3.24551 34 2.86896 34C2.4924 34 2.11958 33.926 1.77198 33.7823C1.42439 33.6386 1.10891 33.428 0.84374 33.1627C0.576389 32.8996 0.364185 32.5865 0.219372 32.2416C0.0745583 31.8966 0 31.5267 0 31.153C0 30.7793 0.0745583 30.4093 0.219372 30.0644C0.364185 29.7195 0.576389 29.4064 0.84374 29.1433L13.1091 17L0.84374 4.85674C0.576389 4.59359 0.364185 4.28053 0.219372 3.93559C0.0745583 3.59066 0 3.22068 0 2.84701C0 2.47334 0.0745583 2.10336 0.219372 1.75843C0.364185 1.41349 0.576389 1.10043 0.84374 0.837286Z" fill="#914D2E"/>
</svg>
