<svg width="10" height="17" viewBox="0 0 10 17" fill="none" xmlns="http://www.w3.org/2000/svg">
<path d="M9.57813 0.418643C9.44555 0.285989 9.2878 0.180699 9.11401 0.108847C8.94021 0.0369938 8.7538 0 8.56552 0C8.37724 0 8.19083 0.0369938 8.01703 0.108847C7.84324 0.180699 7.6855 0.285989 7.55291 0.418643L0.42187 7.49514C0.288194 7.62671 0.182092 7.78324 0.109685 7.95571C0.0372786 8.12818 0 8.31316 0 8.5C0 8.68684 0.0372786 8.87182 0.109685 9.04429C0.182092 9.21676 0.288194 9.37329 0.42187 9.50486L7.55291 16.5814C7.6855 16.714 7.84324 16.8193 8.01703 16.8912C8.19083 16.963 8.37724 17 8.56552 17C8.7538 17 8.94021 16.963 9.11401 16.8912C9.2878 16.8193 9.44555 16.714 9.57813 16.5814C9.71181 16.4498 9.81791 16.2933 9.89031 16.1208C9.96272 15.9483 10 15.7633 10 15.5765C10 15.3897 9.96272 15.2047 9.89031 15.0322C9.81791 14.8597 9.71181 14.7032 9.57813 14.5716L3.44543 8.5L9.57813 2.42837C9.71181 2.2968 9.81791 2.14026 9.89031 1.9678C9.96272 1.79533 10 1.61034 10 1.42351C10 1.23667 9.96272 1.05168 9.89031 0.879214C9.81791 0.706747 9.71181 0.550213 9.57813 0.418643Z" fill="#914D2E"/>
</svg>
